<?xml version="1.0" encoding="utf-8"?>
<!-- Svg Vector Icons : http://www.onlinewebfonts.com/icon -->
<!DOCTYPE svg PUBLIC "-//W3C//DTD SVG 1.1//EN" "http://www.w3.org/Graphics/SVG/1.1/DTD/svg11.dtd">
<svg version="1.1" xmlns="http://www.w3.org/2000/svg" xmlns:xlink="http://www.w3.org/1999/xlink" x="0px" y="0px" viewBox="0 0 1000 1000" enable-background="new 0 0 1000 1000" xml:space="preserve">
<metadata> Svg Vector Icons : http://www.onlinewebfonts.com/icon </metadata>
<g><g transform="translate(0.000000,511.000000) scale(0.100000,-0.100000)"><path d="M7541.9,4835.9c-46.4-95.2-137-285.6-202-424.9l-118.4-248.4l-111.4,55.7c-703.5,355.2-1462.7,520.1-2279.9,494.5c-696.5-23.2-1202.6-146.3-1831.8-448.1C2459.6,4007,2058,3714.5,1647,3285C918,2525.8,460.6,1506.5,381.7,471l-16.3-202l102.2-13.9c55.7-9.3,327.4-51.1,601.3-95.2c274-41.8,557.2-85.9,631.5-92.9l130-16.2l13.9,157.9c72,870.6,359.9,1532.3,905.5,2084.9c431.8,438.8,893.9,701.2,1513.8,863.7c239.1,60.4,278.6,65,740.6,62.7c469,0,496.8-2.3,754.6-72c255.4-67.3,633.8-215.9,754.6-294.9l55.7-37.1l-99.9-213.6c-55.7-118.4-139.3-292.5-185.7-383.1c-46.4-92.9-76.6-169.5-67.3-169.5c60.4,0,2166.2,759.2,2166.2,780.1c0,20.9-373.8,1095.8-731.4,2098.8l-27.9,81.3L7541.9,4835.9z"/><path d="M8131.6-172.1c-74.3-770.8-378.4-1425.5-910.1-1957.2c-942.6-942.6-2342.6-1188.7-3566.2-626.9c-104.5,48.7-195,95.2-199.7,106.8c-7,11.6,69.6,192.7,169.5,401.7c102.2,209,178.8,385.4,171.8,392.4c-7,7-2129-726.7-2163.8-749.9c-7-2.3,756.9-2175.5,766.2-2184.7c2.3-2.3,88.2,169.5,188.1,380.8c102.2,213.6,192.7,397,202,406.3c9.3,11.6,39.5,4.6,69.7-13.9c104.5-67.3,561.9-250.7,819.6-327.4c452.7-137,794-185.7,1325.7-185.7c506.1,0,729,27.9,1184.1,146.3c1678.6,438.8,2997.3,1836.5,3343.3,3542.9c51.1,248.4,118.4,840.5,99.8,861.3c-7,4.6-1351.2,102.2-1437.1,102.2C8168.7,122.8,8154.8,57.8,8131.6-172.1z"/></g></g>
</svg>